# xmcd
#
# Track frame offsets: 
#        150
#        13371
#        27981
#        40497
#        53888
#        66375
#        83732
#        97196
#        110500
#        126167
#        143651
#        155418
#        167885
#        182980
#        198924
#
# Disc length: 2917 seconds
#
# Revision: 0
# Processed by: cddbd v1.5PL3 Copyright (c) Steve Scherf et al.
# Submitted via: ExactAudioCopy v0.95a5
#
DISCID=da0b630f
DTITLE=Percy Sledge - When A Man Loves A Woman
DYEAR=2001
DGENRE=Soul
TTITLE0=When A Man Loves A Woman
TTITLE1=Warm and Tender Love
TTITLE2=It Tears Me Up
TTITLE3=Take Time To Know Her
TTITLE4=Cover Me
TTITLE5=Try A Little Tenderness
TTITLE6=My Special Prayer
TTITLE7=I've Been Loving You Too Long
TTITLE8=Bring It On Home To Me
TTITLE9=If Loving You Is Wrong
TTITLE10=Tell It Like It Is
TTITLE11=Dark End Of The Street
TTITLE12=Out Of The Left Field
TTITLE13=Just Out Of Reach
TTITLE14=You Send Me
EXTD=
EXTT0=
EXTT1=
EXTT2=
EXTT3=
EXTT4=
EXTT5=
EXTT6=
EXTT7=
EXTT8=
EXTT9=
EXTT10=
EXTT11=
EXTT12=
EXTT13=
EXTT14=
PLAYORDER=
